<mxfile host="app.diagrams.net" modified="2020-11-19T08:02:32.626Z" agent="5.0 (Macintosh; Intel Mac OS X 10_15_6) AppleWebKit/537.36 (KHTML, like Gecko) Chrome/86.0.4240.198 Safari/537.36" etag="teeE_18_SRqzAc9YX7mm" version="13.9.8" type="github">
  <diagram id="R2lEEEUBdFMjLlhIrx00" name="Page-1">
    <mxGraphModel dx="1871" dy="1728" grid="1" gridSize="10" guides="1" tooltips="1" connect="1" arrows="1" fold="1" page="1" pageScale="1" pageWidth="850" pageHeight="1100" math="0" shadow="0" extFonts="Permanent Marker^https://fonts.googleapis.com/css?family=Permanent+Marker">
      <root>
        <mxCell id="0" />
        <mxCell id="1" parent="0" />
        <mxCell id="6WxTaRmCBVNxPUeFpuW_-1" value="perents profile vs family account: optional 1 (0:1)" style="whiteSpace=wrap;html=1;align=center;" vertex="1" parent="1">
          <mxGeometry x="-120" y="200" width="190" height="30" as="geometry" />
        </mxCell>
        <mxCell id="6WxTaRmCBVNxPUeFpuW_-2" value="the relation between child profile and family acc is optional 0 : M; where plan is a multi-valued attributes" style="whiteSpace=wrap;html=1;align=center;" vertex="1" parent="1">
          <mxGeometry x="320" y="-120" width="220" height="50" as="geometry" />
        </mxCell>
        <mxCell id="6WxTaRmCBVNxPUeFpuW_-3" value="Classification" style="whiteSpace=wrap;html=1;align=center;" vertex="1" parent="1">
          <mxGeometry x="700" y="460" width="100" height="40" as="geometry" />
        </mxCell>
        <mxCell id="6WxTaRmCBVNxPUeFpuW_-27" value="" style="edgeStyle=orthogonalEdgeStyle;rounded=0;orthogonalLoop=1;jettySize=auto;html=1;strokeColor=#000000;strokeWidth=1;" edge="1" parent="1" source="6WxTaRmCBVNxPUeFpuW_-4" target="6WxTaRmCBVNxPUeFpuW_-11">
          <mxGeometry relative="1" as="geometry" />
        </mxCell>
        <mxCell id="6WxTaRmCBVNxPUeFpuW_-4" value="parents profile" style="whiteSpace=wrap;html=1;align=center;" vertex="1" parent="1">
          <mxGeometry x="80" y="250" width="100" height="40" as="geometry" />
        </mxCell>
        <mxCell id="6WxTaRmCBVNxPUeFpuW_-5" value="Family account" style="whiteSpace=wrap;html=1;align=center;" vertex="1" parent="1">
          <mxGeometry x="80" y="50" width="100" height="40" as="geometry" />
        </mxCell>
        <mxCell id="6WxTaRmCBVNxPUeFpuW_-11" value="belongs to" style="shape=rhombus;perimeter=rhombusPerimeter;whiteSpace=wrap;html=1;align=center;" vertex="1" parent="1">
          <mxGeometry x="70" y="140" width="120" height="60" as="geometry" />
        </mxCell>
        <mxCell id="6WxTaRmCBVNxPUeFpuW_-14" value="" style="endArrow=none;html=1;strokeWidth=1;entryX=0.5;entryY=1;entryDx=0;entryDy=0;exitX=0.5;exitY=0;exitDx=0;exitDy=0;" edge="1" parent="1" source="6WxTaRmCBVNxPUeFpuW_-11" target="6WxTaRmCBVNxPUeFpuW_-5">
          <mxGeometry width="50" height="50" relative="1" as="geometry">
            <mxPoint x="400" y="300" as="sourcePoint" />
            <mxPoint x="450" y="250" as="targetPoint" />
          </mxGeometry>
        </mxCell>
        <mxCell id="6WxTaRmCBVNxPUeFpuW_-19" value="Profile ID" style="ellipse;whiteSpace=wrap;html=1;align=center;fontStyle=4;" vertex="1" parent="1">
          <mxGeometry x="-100" y="290" width="100" height="40" as="geometry" />
        </mxCell>
        <mxCell id="6WxTaRmCBVNxPUeFpuW_-20" value="Profile ID" style="ellipse;whiteSpace=wrap;html=1;align=center;fontStyle=4;" vertex="1" parent="1">
          <mxGeometry x="410" y="-50" width="100" height="40" as="geometry" />
        </mxCell>
        <mxCell id="6WxTaRmCBVNxPUeFpuW_-21" value="account ID" style="ellipse;whiteSpace=wrap;html=1;align=center;fontStyle=4;" vertex="1" parent="1">
          <mxGeometry x="-100" y="50" width="100" height="40" as="geometry" />
        </mxCell>
        <mxCell id="6WxTaRmCBVNxPUeFpuW_-25" value="Child profile" style="whiteSpace=wrap;html=1;align=center;" vertex="1" parent="1">
          <mxGeometry x="450" y="50" width="100" height="40" as="geometry" />
        </mxCell>
        <mxCell id="6WxTaRmCBVNxPUeFpuW_-26" value="belongs to" style="shape=rhombus;perimeter=rhombusPerimeter;whiteSpace=wrap;html=1;align=center;" vertex="1" parent="1">
          <mxGeometry x="270" y="45" width="100" height="50" as="geometry" />
        </mxCell>
        <mxCell id="6WxTaRmCBVNxPUeFpuW_-28" value="" style="endArrow=none;html=1;strokeColor=#000000;strokeWidth=1;entryX=1;entryY=0.5;entryDx=0;entryDy=0;exitX=0;exitY=0.5;exitDx=0;exitDy=0;" edge="1" parent="1" source="6WxTaRmCBVNxPUeFpuW_-25" target="6WxTaRmCBVNxPUeFpuW_-26">
          <mxGeometry width="50" height="50" relative="1" as="geometry">
            <mxPoint x="260" y="160" as="sourcePoint" />
            <mxPoint x="310" y="110" as="targetPoint" />
          </mxGeometry>
        </mxCell>
        <mxCell id="6WxTaRmCBVNxPUeFpuW_-29" value="" style="endArrow=none;html=1;strokeColor=#000000;strokeWidth=1;entryX=0;entryY=0.5;entryDx=0;entryDy=0;exitX=1;exitY=0.5;exitDx=0;exitDy=0;" edge="1" parent="1" source="6WxTaRmCBVNxPUeFpuW_-5" target="6WxTaRmCBVNxPUeFpuW_-26">
          <mxGeometry width="50" height="50" relative="1" as="geometry">
            <mxPoint x="260" y="160" as="sourcePoint" />
            <mxPoint x="310" y="110" as="targetPoint" />
          </mxGeometry>
        </mxCell>
        <mxCell id="6WxTaRmCBVNxPUeFpuW_-31" value="" style="endArrow=none;html=1;strokeColor=#000000;strokeWidth=1;entryX=0.5;entryY=1;entryDx=0;entryDy=0;exitX=0.25;exitY=0;exitDx=0;exitDy=0;" edge="1" parent="1" source="6WxTaRmCBVNxPUeFpuW_-25" target="6WxTaRmCBVNxPUeFpuW_-20">
          <mxGeometry width="50" height="50" relative="1" as="geometry">
            <mxPoint x="260" y="160" as="sourcePoint" />
            <mxPoint x="310" y="110" as="targetPoint" />
          </mxGeometry>
        </mxCell>
        <mxCell id="6WxTaRmCBVNxPUeFpuW_-32" value="" style="endArrow=none;html=1;strokeColor=#000000;strokeWidth=1;exitX=0.5;exitY=0;exitDx=0;exitDy=0;" edge="1" parent="1" source="6WxTaRmCBVNxPUeFpuW_-25">
          <mxGeometry width="50" height="50" relative="1" as="geometry">
            <mxPoint x="510" y="60" as="sourcePoint" />
            <mxPoint x="560" y="10" as="targetPoint" />
          </mxGeometry>
        </mxCell>
        <mxCell id="6WxTaRmCBVNxPUeFpuW_-33" value="" style="endArrow=none;html=1;strokeColor=#000000;strokeWidth=1;exitX=1;exitY=0;exitDx=0;exitDy=0;" edge="1" parent="1" source="6WxTaRmCBVNxPUeFpuW_-25">
          <mxGeometry width="50" height="50" relative="1" as="geometry">
            <mxPoint x="520" y="90" as="sourcePoint" />
            <mxPoint x="570" y="40" as="targetPoint" />
          </mxGeometry>
        </mxCell>
        <mxCell id="6WxTaRmCBVNxPUeFpuW_-34" value="" style="endArrow=none;html=1;strokeColor=#000000;strokeWidth=1;entryX=0.25;entryY=1;entryDx=0;entryDy=0;" edge="1" parent="1" target="6WxTaRmCBVNxPUeFpuW_-4">
          <mxGeometry width="50" height="50" relative="1" as="geometry">
            <mxPoint x="60" y="320" as="sourcePoint" />
            <mxPoint x="130" y="290" as="targetPoint" />
            <Array as="points" />
          </mxGeometry>
        </mxCell>
        <mxCell id="6WxTaRmCBVNxPUeFpuW_-35" value="" style="endArrow=none;html=1;strokeColor=#000000;strokeWidth=1;entryX=0;entryY=0.5;entryDx=0;entryDy=0;exitX=1;exitY=0.5;exitDx=0;exitDy=0;" edge="1" parent="1" source="6WxTaRmCBVNxPUeFpuW_-21" target="6WxTaRmCBVNxPUeFpuW_-5">
          <mxGeometry width="50" height="50" relative="1" as="geometry">
            <mxPoint y="80" as="sourcePoint" />
            <mxPoint x="50" y="30" as="targetPoint" />
            <Array as="points" />
          </mxGeometry>
        </mxCell>
        <mxCell id="6WxTaRmCBVNxPUeFpuW_-36" value="" style="endArrow=none;html=1;strokeColor=#000000;strokeWidth=1;entryX=0;entryY=0.5;entryDx=0;entryDy=0;exitX=1;exitY=0.5;exitDx=0;exitDy=0;" edge="1" parent="1" source="6WxTaRmCBVNxPUeFpuW_-19" target="6WxTaRmCBVNxPUeFpuW_-4">
          <mxGeometry width="50" height="50" relative="1" as="geometry">
            <mxPoint x="10" y="270" as="sourcePoint" />
            <mxPoint x="60" y="220" as="targetPoint" />
          </mxGeometry>
        </mxCell>
        <mxCell id="6WxTaRmCBVNxPUeFpuW_-37" value="type" style="ellipse;whiteSpace=wrap;html=1;align=center;" vertex="1" parent="1">
          <mxGeometry x="-10" y="320" width="100" height="40" as="geometry" />
        </mxCell>
        <mxCell id="6WxTaRmCBVNxPUeFpuW_-38" value="type" style="ellipse;whiteSpace=wrap;html=1;align=center;" vertex="1" parent="1">
          <mxGeometry x="520" y="-30" width="100" height="40" as="geometry" />
        </mxCell>
        <mxCell id="6WxTaRmCBVNxPUeFpuW_-39" value="Attribute" style="ellipse;whiteSpace=wrap;html=1;align=center;" vertex="1" parent="1">
          <mxGeometry x="120" y="-60" width="100" height="40" as="geometry" />
        </mxCell>
        <mxCell id="6WxTaRmCBVNxPUeFpuW_-40" value="Attribute" style="ellipse;whiteSpace=wrap;html=1;align=center;" vertex="1" parent="1">
          <mxGeometry x="-110" y="-60" width="100" height="40" as="geometry" />
        </mxCell>
        <mxCell id="6WxTaRmCBVNxPUeFpuW_-41" value="Attribute" style="ellipse;whiteSpace=wrap;html=1;align=center;" vertex="1" parent="1">
          <mxGeometry x="-140" y="5" width="100" height="40" as="geometry" />
        </mxCell>
        <mxCell id="6WxTaRmCBVNxPUeFpuW_-42" value="Attribute" style="ellipse;whiteSpace=wrap;html=1;align=center;" vertex="1" parent="1">
          <mxGeometry x="200" y="300" width="100" height="40" as="geometry" />
        </mxCell>
        <mxCell id="6WxTaRmCBVNxPUeFpuW_-43" value="Name" style="ellipse;whiteSpace=wrap;html=1;align=center;" vertex="1" parent="1">
          <mxGeometry x="580" y="80" width="100" height="40" as="geometry" />
        </mxCell>
        <mxCell id="6WxTaRmCBVNxPUeFpuW_-44" value="avatar" style="ellipse;whiteSpace=wrap;html=1;align=center;" vertex="1" parent="1">
          <mxGeometry x="110" y="330" width="100" height="40" as="geometry" />
        </mxCell>
        <mxCell id="6WxTaRmCBVNxPUeFpuW_-45" value="Plan" style="ellipse;whiteSpace=wrap;html=1;align=center;strokeWidth=3;" vertex="1" parent="1">
          <mxGeometry x="570" y="20" width="100" height="40" as="geometry" />
        </mxCell>
        <mxCell id="6WxTaRmCBVNxPUeFpuW_-46" value="" style="endArrow=none;html=1;strokeColor=#000000;strokeWidth=1;exitX=0.5;exitY=0;exitDx=0;exitDy=0;" edge="1" parent="1" source="6WxTaRmCBVNxPUeFpuW_-45">
          <mxGeometry width="50" height="50" relative="1" as="geometry">
            <mxPoint x="640" y="10" as="sourcePoint" />
            <mxPoint x="690" y="-40" as="targetPoint" />
          </mxGeometry>
        </mxCell>
        <mxCell id="6WxTaRmCBVNxPUeFpuW_-47" value="" style="endArrow=none;html=1;strokeColor=#000000;strokeWidth=1;exitX=0.79;exitY=0.9;exitDx=0;exitDy=0;exitPerimeter=0;" edge="1" parent="1" source="6WxTaRmCBVNxPUeFpuW_-69">
          <mxGeometry width="50" height="50" relative="1" as="geometry">
            <mxPoint x="400" y="100" as="sourcePoint" />
            <mxPoint x="450" y="50" as="targetPoint" />
          </mxGeometry>
        </mxCell>
        <mxCell id="6WxTaRmCBVNxPUeFpuW_-48" value="" style="endArrow=none;html=1;strokeColor=#000000;strokeWidth=1;exitX=1;exitY=0;exitDx=0;exitDy=0;" edge="1" parent="1" source="6WxTaRmCBVNxPUeFpuW_-70">
          <mxGeometry width="50" height="50" relative="1" as="geometry">
            <mxPoint x="435" y="140" as="sourcePoint" />
            <mxPoint x="485" y="90" as="targetPoint" />
          </mxGeometry>
        </mxCell>
        <mxCell id="6WxTaRmCBVNxPUeFpuW_-49" value="" style="endArrow=none;html=1;strokeColor=#000000;strokeWidth=1;exitX=0.5;exitY=0;exitDx=0;exitDy=0;" edge="1" parent="1" source="6WxTaRmCBVNxPUeFpuW_-71">
          <mxGeometry width="50" height="50" relative="1" as="geometry">
            <mxPoint x="460" y="140" as="sourcePoint" />
            <mxPoint x="510" y="90" as="targetPoint" />
          </mxGeometry>
        </mxCell>
        <mxCell id="6WxTaRmCBVNxPUeFpuW_-50" value="" style="endArrow=none;html=1;strokeColor=#000000;strokeWidth=1;entryX=0;entryY=0.5;entryDx=0;entryDy=0;exitX=0.75;exitY=1;exitDx=0;exitDy=0;" edge="1" parent="1" source="6WxTaRmCBVNxPUeFpuW_-25" target="6WxTaRmCBVNxPUeFpuW_-72">
          <mxGeometry width="50" height="50" relative="1" as="geometry">
            <mxPoint x="260" y="180" as="sourcePoint" />
            <mxPoint x="310" y="130" as="targetPoint" />
          </mxGeometry>
        </mxCell>
        <mxCell id="6WxTaRmCBVNxPUeFpuW_-51" value="" style="endArrow=none;html=1;strokeColor=#000000;strokeWidth=1;entryX=0;entryY=0;entryDx=0;entryDy=0;" edge="1" parent="1" target="6WxTaRmCBVNxPUeFpuW_-42">
          <mxGeometry width="50" height="50" relative="1" as="geometry">
            <mxPoint x="180" y="280" as="sourcePoint" />
            <mxPoint x="240" y="300" as="targetPoint" />
          </mxGeometry>
        </mxCell>
        <mxCell id="6WxTaRmCBVNxPUeFpuW_-52" value="" style="endArrow=none;html=1;strokeColor=#000000;strokeWidth=1;exitX=0.44;exitY=0.025;exitDx=0;exitDy=0;exitPerimeter=0;" edge="1" parent="1" source="6WxTaRmCBVNxPUeFpuW_-44">
          <mxGeometry width="50" height="50" relative="1" as="geometry">
            <mxPoint x="90" y="340" as="sourcePoint" />
            <mxPoint x="140" y="290" as="targetPoint" />
          </mxGeometry>
        </mxCell>
        <mxCell id="6WxTaRmCBVNxPUeFpuW_-53" value="" style="endArrow=none;html=1;strokeColor=#000000;strokeWidth=1;exitX=0;exitY=0;exitDx=0;exitDy=0;entryX=1;entryY=0.5;entryDx=0;entryDy=0;" edge="1" parent="1" source="6WxTaRmCBVNxPUeFpuW_-5" target="6WxTaRmCBVNxPUeFpuW_-41">
          <mxGeometry width="50" height="50" relative="1" as="geometry">
            <mxPoint x="-25" y="50" as="sourcePoint" />
            <mxPoint x="25" as="targetPoint" />
          </mxGeometry>
        </mxCell>
        <mxCell id="6WxTaRmCBVNxPUeFpuW_-54" value="" style="endArrow=none;html=1;strokeColor=#000000;strokeWidth=1;exitX=0.25;exitY=0;exitDx=0;exitDy=0;entryX=0.5;entryY=1;entryDx=0;entryDy=0;" edge="1" parent="1" source="6WxTaRmCBVNxPUeFpuW_-5" target="6WxTaRmCBVNxPUeFpuW_-40">
          <mxGeometry width="50" height="50" relative="1" as="geometry">
            <mxPoint x="-20" y="20" as="sourcePoint" />
            <mxPoint x="60" y="-10" as="targetPoint" />
          </mxGeometry>
        </mxCell>
        <mxCell id="6WxTaRmCBVNxPUeFpuW_-55" value="" style="endArrow=none;html=1;strokeColor=#000000;strokeWidth=1;exitX=0.5;exitY=0;exitDx=0;exitDy=0;entryX=0.5;entryY=1;entryDx=0;entryDy=0;" edge="1" parent="1" source="6WxTaRmCBVNxPUeFpuW_-5" target="6WxTaRmCBVNxPUeFpuW_-39">
          <mxGeometry width="50" height="50" relative="1" as="geometry">
            <mxPoint x="90" y="30" as="sourcePoint" />
            <mxPoint x="140" y="-20" as="targetPoint" />
          </mxGeometry>
        </mxCell>
        <mxCell id="6WxTaRmCBVNxPUeFpuW_-56" value="" style="endArrow=none;html=1;strokeColor=#000000;strokeWidth=1;exitX=1;exitY=1;exitDx=0;exitDy=0;" edge="1" parent="1" source="6WxTaRmCBVNxPUeFpuW_-25">
          <mxGeometry width="50" height="50" relative="1" as="geometry">
            <mxPoint x="530" y="150" as="sourcePoint" />
            <mxPoint x="580" y="100" as="targetPoint" />
          </mxGeometry>
        </mxCell>
        <mxCell id="6WxTaRmCBVNxPUeFpuW_-57" value="Entity" style="whiteSpace=wrap;html=1;align=center;" vertex="1" parent="1">
          <mxGeometry x="510" y="510" width="100" height="40" as="geometry" />
        </mxCell>
        <mxCell id="6WxTaRmCBVNxPUeFpuW_-58" value="Entity" style="whiteSpace=wrap;html=1;align=center;" vertex="1" parent="1">
          <mxGeometry x="640" y="520" width="100" height="40" as="geometry" />
        </mxCell>
        <mxCell id="6WxTaRmCBVNxPUeFpuW_-60" value="Movie" style="whiteSpace=wrap;html=1;align=center;" vertex="1" parent="1">
          <mxGeometry x="-70" y="-290" width="100" height="40" as="geometry" />
        </mxCell>
        <mxCell id="6WxTaRmCBVNxPUeFpuW_-61" value="Attribute" style="ellipse;whiteSpace=wrap;html=1;align=center;" vertex="1" parent="1">
          <mxGeometry x="260" y="200" width="100" height="40" as="geometry" />
        </mxCell>
        <mxCell id="6WxTaRmCBVNxPUeFpuW_-62" value="Attribute" style="ellipse;whiteSpace=wrap;html=1;align=center;" vertex="1" parent="1">
          <mxGeometry x="270" y="200" width="100" height="40" as="geometry" />
        </mxCell>
        <mxCell id="6WxTaRmCBVNxPUeFpuW_-63" value="Attribute" style="ellipse;whiteSpace=wrap;html=1;align=center;" vertex="1" parent="1">
          <mxGeometry x="250" y="190" width="100" height="40" as="geometry" />
        </mxCell>
        <mxCell id="6WxTaRmCBVNxPUeFpuW_-66" value="Basic" style="ellipse;whiteSpace=wrap;html=1;align=center;" vertex="1" parent="1">
          <mxGeometry x="650" y="-80" width="100" height="40" as="geometry" />
        </mxCell>
        <mxCell id="6WxTaRmCBVNxPUeFpuW_-67" value="Premium" style="ellipse;whiteSpace=wrap;html=1;align=center;" vertex="1" parent="1">
          <mxGeometry x="690" y="20" width="100" height="40" as="geometry" />
        </mxCell>
        <mxCell id="6WxTaRmCBVNxPUeFpuW_-68" value="Standard" style="ellipse;whiteSpace=wrap;html=1;align=center;" vertex="1" parent="1">
          <mxGeometry x="680" y="-30" width="100" height="40" as="geometry" />
        </mxCell>
        <mxCell id="6WxTaRmCBVNxPUeFpuW_-69" value="avatar" style="ellipse;whiteSpace=wrap;html=1;align=center;" vertex="1" parent="1">
          <mxGeometry x="320" y="-20" width="100" height="40" as="geometry" />
        </mxCell>
        <mxCell id="6WxTaRmCBVNxPUeFpuW_-70" value="Charging Date" style="ellipse;whiteSpace=wrap;html=1;align=center;" vertex="1" parent="1">
          <mxGeometry x="350" y="160" width="100" height="40" as="geometry" />
        </mxCell>
        <mxCell id="6WxTaRmCBVNxPUeFpuW_-71" value="concurrent screens" style="ellipse;whiteSpace=wrap;html=1;align=center;" vertex="1" parent="1">
          <mxGeometry x="460" y="160" width="100" height="40" as="geometry" />
        </mxCell>
        <mxCell id="6WxTaRmCBVNxPUeFpuW_-72" value="monthly subscription price" style="ellipse;whiteSpace=wrap;html=1;align=center;" vertex="1" parent="1">
          <mxGeometry x="570" y="130" width="110" height="50" as="geometry" />
        </mxCell>
        <mxCell id="6WxTaRmCBVNxPUeFpuW_-82" value="" style="endArrow=none;html=1;strokeColor=#000000;strokeWidth=1;exitX=1;exitY=0.5;exitDx=0;exitDy=0;" edge="1" parent="1" source="6WxTaRmCBVNxPUeFpuW_-45">
          <mxGeometry width="50" height="50" relative="1" as="geometry">
            <mxPoint x="640" y="95" as="sourcePoint" />
            <mxPoint x="690" y="45" as="targetPoint" />
          </mxGeometry>
        </mxCell>
        <mxCell id="6WxTaRmCBVNxPUeFpuW_-83" value="" style="endArrow=none;html=1;strokeColor=#000000;strokeWidth=1;exitX=1;exitY=0;exitDx=0;exitDy=0;" edge="1" parent="1" source="6WxTaRmCBVNxPUeFpuW_-45">
          <mxGeometry width="50" height="50" relative="1" as="geometry">
            <mxPoint x="640" y="50" as="sourcePoint" />
            <mxPoint x="690" as="targetPoint" />
          </mxGeometry>
        </mxCell>
        <mxCell id="6WxTaRmCBVNxPUeFpuW_-84" value="Title" style="ellipse;whiteSpace=wrap;html=1;align=center;" vertex="1" parent="1">
          <mxGeometry x="-70" y="-390" width="100" height="40" as="geometry" />
        </mxCell>
        <mxCell id="6WxTaRmCBVNxPUeFpuW_-85" value="&lt;u&gt;MovieID&lt;/u&gt;" style="ellipse;whiteSpace=wrap;html=1;align=center;" vertex="1" parent="1">
          <mxGeometry x="-170" y="-360" width="100" height="40" as="geometry" />
        </mxCell>
        <mxCell id="6WxTaRmCBVNxPUeFpuW_-86" value="" style="endArrow=none;html=1;strokeColor=#000000;strokeWidth=1;" edge="1" parent="1">
          <mxGeometry width="50" height="50" relative="1" as="geometry">
            <mxPoint x="360" y="340" as="sourcePoint" />
            <mxPoint x="410" y="290" as="targetPoint" />
          </mxGeometry>
        </mxCell>
        <mxCell id="6WxTaRmCBVNxPUeFpuW_-87" value="" style="endArrow=none;html=1;strokeColor=#000000;strokeWidth=1;" edge="1" parent="1">
          <mxGeometry width="50" height="50" relative="1" as="geometry">
            <mxPoint x="345" y="350" as="sourcePoint" />
            <mxPoint x="395" y="300" as="targetPoint" />
          </mxGeometry>
        </mxCell>
        <mxCell id="6WxTaRmCBVNxPUeFpuW_-88" value="" style="endArrow=none;html=1;strokeColor=#000000;strokeWidth=1;entryX=0.5;entryY=1;entryDx=0;entryDy=0;exitX=0.25;exitY=0;exitDx=0;exitDy=0;" edge="1" parent="1" source="6WxTaRmCBVNxPUeFpuW_-60" target="6WxTaRmCBVNxPUeFpuW_-84">
          <mxGeometry width="50" height="50" relative="1" as="geometry">
            <mxPoint x="155" y="-280" as="sourcePoint" />
            <mxPoint x="205" y="-330" as="targetPoint" />
          </mxGeometry>
        </mxCell>
        <mxCell id="6WxTaRmCBVNxPUeFpuW_-89" value="" style="endArrow=none;html=1;strokeColor=#000000;strokeWidth=1;exitX=0;exitY=0;exitDx=0;exitDy=0;entryX=1;entryY=0.5;entryDx=0;entryDy=0;" edge="1" parent="1" source="6WxTaRmCBVNxPUeFpuW_-60" target="6WxTaRmCBVNxPUeFpuW_-85">
          <mxGeometry width="50" height="50" relative="1" as="geometry">
            <mxPoint x="-160" y="-270" as="sourcePoint" />
            <mxPoint x="-110" y="-320" as="targetPoint" />
          </mxGeometry>
        </mxCell>
        <mxCell id="6WxTaRmCBVNxPUeFpuW_-90" value="" style="endArrow=none;html=1;strokeColor=#000000;strokeWidth=1;" edge="1" parent="1">
          <mxGeometry width="50" height="50" relative="1" as="geometry">
            <mxPoint x="350" y="-230" as="sourcePoint" />
            <mxPoint x="400" y="-280" as="targetPoint" />
          </mxGeometry>
        </mxCell>
        <mxCell id="6WxTaRmCBVNxPUeFpuW_-91" value="" style="endArrow=none;html=1;strokeColor=#000000;strokeWidth=1;" edge="1" parent="1">
          <mxGeometry width="50" height="50" relative="1" as="geometry">
            <mxPoint x="350" y="-230" as="sourcePoint" />
            <mxPoint x="400" y="-280" as="targetPoint" />
          </mxGeometry>
        </mxCell>
        <mxCell id="6WxTaRmCBVNxPUeFpuW_-92" value="" style="endArrow=none;html=1;strokeColor=#000000;strokeWidth=1;" edge="1" parent="1">
          <mxGeometry width="50" height="50" relative="1" as="geometry">
            <mxPoint x="350" y="-230" as="sourcePoint" />
            <mxPoint x="400" y="-280" as="targetPoint" />
          </mxGeometry>
        </mxCell>
        <mxCell id="6WxTaRmCBVNxPUeFpuW_-93" value="" style="endArrow=none;html=1;strokeColor=#000000;strokeWidth=1;" edge="1" parent="1">
          <mxGeometry width="50" height="50" relative="1" as="geometry">
            <mxPoint x="350" y="-230" as="sourcePoint" />
            <mxPoint x="400" y="-280" as="targetPoint" />
          </mxGeometry>
        </mxCell>
        <mxCell id="6WxTaRmCBVNxPUeFpuW_-94" value="" style="endArrow=none;html=1;strokeColor=#000000;strokeWidth=1;exitX=0.5;exitY=0;exitDx=0;exitDy=0;" edge="1" parent="1" source="6WxTaRmCBVNxPUeFpuW_-96">
          <mxGeometry width="50" height="50" relative="1" as="geometry">
            <mxPoint x="-70" y="-200" as="sourcePoint" />
            <mxPoint x="-20" y="-250" as="targetPoint" />
          </mxGeometry>
        </mxCell>
        <mxCell id="6WxTaRmCBVNxPUeFpuW_-95" value="" style="endArrow=none;html=1;strokeColor=#000000;strokeWidth=1;exitX=0.4;exitY=0;exitDx=0;exitDy=0;exitPerimeter=0;entryX=0.5;entryY=1;entryDx=0;entryDy=0;" edge="1" parent="1" source="6WxTaRmCBVNxPUeFpuW_-5" target="6WxTaRmCBVNxPUeFpuW_-96">
          <mxGeometry width="50" height="50" relative="1" as="geometry">
            <mxPoint x="-30" y="-80" as="sourcePoint" />
            <mxPoint x="20" y="-130" as="targetPoint" />
          </mxGeometry>
        </mxCell>
        <mxCell id="6WxTaRmCBVNxPUeFpuW_-96" value="can view" style="shape=rhombus;perimeter=rhombusPerimeter;whiteSpace=wrap;html=1;align=center;strokeWidth=1;" vertex="1" parent="1">
          <mxGeometry x="-30" y="-150" width="120" height="50" as="geometry" />
        </mxCell>
        <mxCell id="6WxTaRmCBVNxPUeFpuW_-97" value="TV Shows" style="whiteSpace=wrap;html=1;align=center;" vertex="1" parent="1">
          <mxGeometry x="150" y="-290" width="100" height="40" as="geometry" />
        </mxCell>
      </root>
    </mxGraphModel>
  </diagram>
</mxfile>
